{
  "asset": {
    "version": "2.0",
    "generator": "vkm test fixture generator"
  },
  "scene": 0,
  "scenes": [
    {
      "nodes": [
        0
      ]
    }
  ],
  "nodes": [
    {
      "name": "emissive_sphere",
      "mesh": 0
    }
  ],
  "meshes": [
    {
      "name": "emissive_sphere",
      "primitives": [
        {
          "attributes": {
            "POSITION": 0,
            "NORMAL": 1
          },
          "indices": 2,
          "material": 0
        }
      ]
    }
  ],
  "materials": [
    {
      "name": "EmissiveSphere",
      "pbrMetallicRoughness": {
        "baseColorFactor": [
          0.0,
          0.0,
          0.0,
          1.0
        ],
        "metallicFactor": 0.0,
        "roughnessFactor": 1.0
      },
      "emissiveFactor": [
        1.0,
        0.85,
        0.6
      ],
      "extensions": {
        "KHR_materials_emissive_strength": {
          "emissiveStrength": 12.0
        }
      }
    }
  ],
  "accessors": [
    {
      "bufferView": 0,
      "componentType": 5126,
      "count": 425,
      "type": "VEC3",
      "min": [
        -1.0,
        0.5,
        -1.0
      ],
      "max": [
        1.0,
        2.5,
        1.0
      ]
    },
    {
      "bufferView": 1,
      "componentType": 5126,
      "count": 425,
      "type": "VEC3"
    },
    {
      "bufferView": 2,
      "componentType": 5123,
      "count": 2160,
      "type": "SCALAR"
    }
  ],
  "bufferViews": [
    {
      "buffer": 0,
      "byteOffset": 0,
      "byteLength": 5100
    },
    {
      "buffer": 0,
      "byteOffset": 5100,
      "byteLength": 5100
    },
    {
      "buffer": 0,
      "byteOffset": 10200,
      "byteLength": 4320
    }
  ],
  "buffers": [
    {
      "byteLength": 14520,
      "uri": "data:application/octet-stream;base64,"
    }
  ],
  "extensionsUsed": [
    "KHR_materials_emissive_strength"
  ]
}
